<?xml version="1.0" encoding="utf-8"?>
<!-- Generator: Adobe Illustrator 22.1.0, SVG Export Plug-In . SVG Version: 6.00 Build 0)  -->
<svg version="1.1" id="Layer_1" xmlns="http://www.w3.org/2000/svg" xmlns:xlink="http://www.w3.org/1999/xlink" x="0px" y="0px"
	 viewBox="0 0 610.9 151.9" style="enable-background:new 0 0 610.9 151.9;" xml:space="preserve">
<style type="text/css">
	.st0{fill:#01549C;}
	.st1{fill:#29ABE2;}
	.st2{fill-rule:evenodd;clip-rule:evenodd;fill:#ED7323;}
	.st3{fill:#FFFFFF;}
	.st4{fill:#ED7323;}
</style>
<g>
	<path class="st0" d="M85,121.1H62.5l-5.5-30.7H32.3l-5.6,30.7H4.2L31,0h28.4L85,121.1z M53.6,72.5l-5.7-34.3
		c-1.5-8.8-2.3-15.8-2.4-20.9c-0.1-1.3-0.2-2.6-0.4-3.9h-0.3c-0.4,5.5-1.4,13.7-2.9,24.8l-6.3,34.3H53.6z"/>
	<path class="st0" d="M171.5,121.1h-23.1c-1-3.1-1.7-8.2-2-15.3c-0.2-2.8-0.3-5.5-0.3-8.2v-7.1c0-11.8-2.4-18.5-7.2-19.9
		c-3.6-1.1-9.5-1.6-17.8-1.6h-3.7v52.1H96.2V0H136c10,0,17.6,2,22.8,6.1c6.1,4.8,9.2,12.5,9.2,22.9c0,12.3-2.9,20.8-8.6,25.5
		c-2.3,1.9-5.2,3.2-8.7,3.7v0.3c10.8,1.5,16.2,8.8,16.2,22v4.4c0,9.8,0.4,17.6,1.1,23.3c0.7,5.8,1.8,9.3,3.5,10.6V121.1z
		 M146.1,33.8c0-6.2-1.2-10.5-3.6-13c-1.9-1.9-5.1-2.9-9.6-2.9h-15.5v33.3h16.4C142,51.2,146.1,45.4,146.1,33.8z"/>
	<path class="st0" d="M246.8,121.1h-59.2V0h59.2v17.9h-38v30.3h35v17.9h-35v37h38V121.1z"/>
	<path class="st0" d="M323.4,121.1h-60.1V0h21.2v103.2h38.9V121.1z"/>
</g>
<g>
	<path class="st1" d="M9.3,145.3H6.8l-0.6-2.9H3.1l-0.6,2.9H0l3.2-13.5h3L9.3,145.3z M5.8,140.3l-1.2-6.1h0l-1.2,6.1H5.8z"/>
	<path class="st1" d="M16.8,137.4c-0.2,0-0.5,0-0.7,0c-0.5,0-0.9,0.2-1.2,0.5c-0.3,0.3-0.5,0.8-0.5,1.3v6.1h-2.3v-10.2h2.2v1.4
		c0.5-1.1,1.2-1.6,2.1-1.6c0.1,0,0.3,0,0.4,0V137.4z"/>
	<path class="st1" d="M26.2,140.6h-4.6v0.8c0,1.6,0.4,2.4,1.1,2.4c0.7,0,1.1-0.6,1.2-1.9H26c-0.1,2.5-1.2,3.7-3.3,3.7
		c-1.5,0-2.5-0.6-3-1.8c-0.3-0.8-0.5-2-0.5-3.7c0-1.6,0.2-2.8,0.6-3.6c0.5-1.1,1.5-1.6,2.9-1.6c1.3,0,2.1,0.5,2.7,1.4
		c0.4,0.8,0.6,2,0.6,3.8V140.6z M24,139.1c0-0.6,0-1-0.1-1.2c-0.1-0.5-0.3-0.9-0.5-1c-0.2-0.1-0.4-0.2-0.6-0.2c-0.8,0-1.2,0.7-1.2,2
		v0.4H24z"/>
	<path class="st1" d="M31.8,145.3h-2.3v-13.5h2.3V145.3z"/>
	<path class="st1" d="M49.5,138.4c0,2.5-0.3,4.2-0.9,5.2c-0.6,1.1-1.7,1.7-3.2,1.7h-3.8v-13.5h3.9c1.6,0,2.6,0.6,3.2,1.8
		C49.2,134.6,49.5,136.2,49.5,138.4z M47.1,138.5c0-1.7-0.1-2.9-0.3-3.5c-0.3-0.8-0.9-1.1-1.7-1.1h-1v9.4H45c0.8,0,1.3-0.4,1.6-1.1
		C46.9,141.6,47.1,140.4,47.1,138.5z"/>
	<path class="st1" d="M55.4,133.9h-2.3v-2.2h2.3V133.9z M55.4,145.3h-2.3v-10.2h2.3V145.3z"/>
	<path class="st1" d="M61.4,145.3h-2.3v-13.5h2.3V145.3z"/>
	<path class="st1" d="M77.9,145.3h-6.8v-13.5h6.7v2.2h-4.3v3.2h4v2.2h-4v3.6h4.4V145.3z"/>
	<path class="st1" d="M87.8,144.8c0,1.4-0.3,2.4-0.9,3.1c-0.6,0.6-1.6,0.9-2.8,0.9c-0.9,0-1.6-0.2-2.1-0.6c-0.6-0.5-0.9-1.2-0.9-2.1
		h2.2c0,0.3,0.1,0.6,0.3,0.8c0.2,0.2,0.5,0.3,0.8,0.3c0.8,0,1.3-0.6,1.3-1.8V144h0c-0.5,0.8-1.2,1.2-1.9,1.2c-1.4,0-2.2-0.9-2.6-2.8
		c-0.1-0.6-0.2-1.4-0.2-2.4c0-2.4,0.4-4,1.3-4.7c0.4-0.3,0.9-0.5,1.5-0.5c0.8,0,1.5,0.5,1.9,1.4h0v-1.1h2.2V144.8z M86.9,131.1
		c0,0.6-0.2,1.2-0.5,1.7c-0.4,0.6-1,1-1.8,1c-0.8,0-1.4-0.3-1.8-1c-0.3-0.5-0.5-1.1-0.5-1.7h1.1c0,0.4,0.2,0.7,0.4,0.9
		c0.2,0.2,0.5,0.3,0.8,0.3c0.3,0,0.6-0.1,0.8-0.3c0.2-0.2,0.4-0.5,0.4-0.9H86.9z M85.6,140.3c0-1,0-1.7-0.1-2.1
		c-0.2-0.9-0.5-1.3-1.1-1.3c-0.7,0-1.1,0.6-1.2,1.9c0,0.5-0.1,1.1-0.1,1.7c0,1.8,0.4,2.6,1.2,2.6c0.7,0,1.1-0.6,1.2-1.7
		C85.6,141.1,85.6,140.7,85.6,140.3z"/>
	<path class="st1" d="M93.8,133.9h-2.3v-2.2h2.3V133.9z M93.8,145.3h-2.3v-10.2h2.3V145.3z"/>
	<path class="st1" d="M101.6,145.3l-0.7,0.1c-0.2,0-0.5,0-0.8,0c-0.9,0-1.5-0.2-1.7-0.6c-0.3-0.4-0.4-1.1-0.4-2.1v-5.8h-1.2v-1.8
		h1.2v-2.9h2.3v2.9h1.3v1.8h-1.3v5.5c0,0.4,0.1,0.7,0.2,0.8c0.1,0.2,0.3,0.3,0.7,0.3c0.2,0,0.4,0,0.5,0V145.3z"/>
	<path class="st1" d="M106.8,133.9h-2.3v-2.2h2.3V133.9z M106.8,145.3h-2.3v-10.2h2.3V145.3z"/>
	<path class="st1" d="M121.5,145.3h-2.3v-7.1c0-0.9-0.3-1.3-0.9-1.3c-0.8,0-1.2,0.6-1.2,1.7v6.7h-2.3v-7.1c0-0.9-0.3-1.3-0.9-1.3
		c-0.8,0-1.2,0.6-1.2,1.7v6.7h-2.3v-10.2h2.2v1c0.5-0.9,1.3-1.3,2.3-1.3c1.1,0,1.8,0.5,2.1,1.6h0c0.4-1.1,1.1-1.6,2.3-1.6
		c1.5,0,2.2,1,2.2,3V145.3z"/>
	<path class="st1" d="M137.6,135.2l-2.3,10.2h-2.7l-2.3-10.2h2.4l1.3,7.3h0l1.2-7.3H137.6z"/>
	<path class="st1" d="M147,140.6h-4.6v0.8c0,1.6,0.4,2.4,1.1,2.4c0.7,0,1.1-0.6,1.2-1.9h2.1c-0.1,2.5-1.2,3.7-3.3,3.7
		c-1.5,0-2.5-0.6-3-1.8c-0.3-0.8-0.5-2-0.5-3.7c0-1.6,0.2-2.8,0.6-3.6c0.5-1.1,1.5-1.6,2.9-1.6c1.3,0,2.1,0.5,2.7,1.4
		c0.4,0.8,0.6,2,0.6,3.8V140.6z M144.8,139.1c0-0.6,0-1-0.1-1.2c-0.1-0.5-0.3-0.9-0.5-1c-0.2-0.1-0.4-0.2-0.6-0.2
		c-0.8,0-1.2,0.7-1.2,2v0.4H144.8z"/>
	<path class="st1" d="M164.8,145.3h-2.5l-0.6-2.9h-3.2l-0.6,2.9h-2.5l3.2-13.5h3L164.8,145.3z M161.3,140.3l-1.2-6.1h0l-1.2,6.1
		H161.3z"/>
	<path class="st1" d="M172.2,137.4c-0.2,0-0.5,0-0.7,0c-0.5,0-0.9,0.2-1.2,0.5c-0.3,0.3-0.5,0.8-0.5,1.3v6.1h-2.3v-10.2h2.2v1.4
		c0.5-1.1,1.2-1.6,2.1-1.6c0.1,0,0.3,0,0.4,0V137.4z"/>
	<path class="st1" d="M181.8,145.3h-2.2c-0.1-0.2-0.2-0.5-0.3-1.1c-0.3,0.5-0.6,0.9-1,1.1c-0.3,0.2-0.8,0.2-1.3,0.2
		c-0.8,0-1.3-0.3-1.7-0.9c-0.3-0.5-0.5-1.2-0.5-2c0-0.9,0.2-1.6,0.6-2.1c0.3-0.4,0.9-0.8,1.7-1l1.3-0.4c0.6-0.2,0.9-0.6,0.9-1.2
		c0-0.8-0.4-1.2-1.1-1.2c-0.7,0-1.1,0.4-1.1,1.3v0.3h-2.1V138c0-1.1,0.3-1.9,0.9-2.5c0.5-0.5,1.3-0.7,2.2-0.7c1.3,0,2.2,0.3,2.7,0.9
		c0.4,0.5,0.6,1.2,0.6,2.2v5.3C181.5,144.2,181.6,144.8,181.8,145.3z M179.3,142.3v-2c-0.3,0.3-0.6,0.4-1,0.5
		c-0.9,0.2-1.3,0.8-1.3,1.6c0,0.9,0.3,1.4,0.9,1.4c0.4,0,0.8-0.1,1-0.4C179.2,143.1,179.3,142.7,179.3,142.3z"/>
	<path class="st1" d="M191.4,142.4c0,1-0.3,1.8-0.9,2.4c-0.6,0.5-1.4,0.8-2.4,0.8l-0.3,0.5c0.2-0.1,0.3-0.1,0.4-0.1
		c0.3,0,0.5,0.1,0.7,0.3c0.2,0.2,0.3,0.5,0.3,0.8c0,0.9-0.5,1.3-1.6,1.3c-0.5,0-0.9-0.1-1.3-0.3l0.3-0.6c0.2,0.1,0.5,0.2,0.9,0.2
		c0.4,0,0.6-0.2,0.6-0.5c0-0.3-0.2-0.5-0.6-0.5c-0.2,0-0.3,0-0.4,0.1l-0.3-0.3l0.5-0.9c-1-0.1-1.7-0.4-2.2-1
		c-0.4-0.5-0.6-1.2-0.6-2.2V142h2.1v0.3c0,1,0.4,1.5,1.2,1.5c0.8,0,1.2-0.4,1.2-1.2c0-0.5-0.3-0.9-0.8-1.1l-1.6-0.7
		c-1.3-0.5-1.9-1.5-1.9-2.8c0-1.4,0.6-2.4,1.8-2.8c0.4-0.2,0.9-0.2,1.5-0.2c2,0,3.1,1,3.1,2.9v0.4h-2.1c0-1-0.3-1.5-1-1.5
		c-0.3,0-0.6,0.1-0.8,0.3c-0.2,0.2-0.3,0.5-0.3,0.8c0,0.5,0.3,0.9,1,1.2l1.4,0.5c0.7,0.3,1.2,0.6,1.5,1.1
		C191.2,141,191.4,141.6,191.4,142.4z"/>
	<path class="st1" d="M198.7,145.3l-0.7,0.1c-0.2,0-0.5,0-0.8,0c-0.9,0-1.5-0.2-1.7-0.6c-0.3-0.4-0.4-1.1-0.4-2.1v-5.8h-1.2v-1.8
		h1.2v-2.9h2.3v2.9h1.3v1.8h-1.3v5.5c0,0.4,0.1,0.7,0.2,0.8c0.1,0.2,0.3,0.3,0.7,0.3c0.2,0,0.4,0,0.5,0V145.3z"/>
	<path class="st1" d="M203.9,145.3h-2.3v-10.2h2.3V145.3z"/>
	<path class="st1" d="M212.2,137.4c-0.2,0-0.5,0-0.7,0c-0.5,0-0.9,0.2-1.2,0.5c-0.3,0.3-0.5,0.8-0.5,1.3v6.1h-2.3v-10.2h2.2v1.4
		c0.5-1.1,1.2-1.6,2.1-1.6c0.1,0,0.3,0,0.4,0V137.4z"/>
	<path class="st1" d="M226.2,145.3h-2.3v-7.1c0-0.9-0.3-1.3-0.9-1.3c-0.8,0-1.2,0.6-1.2,1.7v6.7h-2.3v-7.1c0-0.9-0.3-1.3-0.9-1.3
		c-0.8,0-1.2,0.6-1.2,1.7v6.7h-2.3v-10.2h2.2v1c0.5-0.9,1.3-1.3,2.3-1.3c1.1,0,1.8,0.5,2.1,1.6h0c0.4-1.1,1.1-1.6,2.3-1.6
		c1.5,0,2.2,1,2.2,3V145.3z"/>
	<path class="st1" d="M236.4,145.3h-2.2c-0.1-0.2-0.2-0.5-0.3-1.1c-0.3,0.5-0.6,0.9-1,1.1c-0.3,0.2-0.8,0.2-1.3,0.2
		c-0.8,0-1.3-0.3-1.7-0.9c-0.3-0.5-0.5-1.2-0.5-2c0-0.9,0.2-1.6,0.6-2.1c0.3-0.4,0.9-0.8,1.7-1l1.3-0.4c0.6-0.2,0.9-0.6,0.9-1.2
		c0-0.8-0.4-1.2-1.1-1.2c-0.7,0-1.1,0.4-1.1,1.3v0.3h-2.1V138c0-1.1,0.3-1.9,0.9-2.5c0.5-0.5,1.3-0.7,2.2-0.7c1.3,0,2.2,0.3,2.7,0.9
		c0.4,0.5,0.6,1.2,0.6,2.2v5.3C236.2,144.2,236.2,144.8,236.4,145.3z M233.9,142.3v-2c-0.3,0.3-0.6,0.4-1,0.5
		c-0.9,0.2-1.3,0.8-1.3,1.6c0,0.9,0.3,1.4,0.9,1.4c0.4,0,0.8-0.1,1-0.4C233.8,143.1,233.9,142.7,233.9,142.3z"/>
	<path class="st1" d="M256.5,145.3h-2.2v-10.8l-2.2,10.8h-1.9l-2.2-10.8h0v10.8h-2.2v-13.5h3.5l1.7,9.5h0.1l1.8-9.5h3.5V145.3z"/>
	<path class="st1" d="M266.7,140.6h-4.6v0.8c0,1.6,0.4,2.4,1.1,2.4c0.7,0,1.1-0.6,1.2-1.9h2.1c-0.1,2.5-1.2,3.7-3.3,3.7
		c-1.5,0-2.5-0.6-3-1.8c-0.3-0.8-0.5-2-0.5-3.7c0-1.6,0.2-2.8,0.6-3.6c0.5-1.1,1.5-1.6,2.9-1.6c1.3,0,2.1,0.5,2.7,1.4
		c0.4,0.8,0.6,2,0.6,3.8V140.6z M264.5,139.1c0-0.6,0-1-0.1-1.2c-0.1-0.5-0.3-0.9-0.5-1c-0.2-0.1-0.4-0.2-0.6-0.2
		c-0.8,0-1.2,0.7-1.2,2v0.4H264.5z"/>
	<path class="st1" d="M274.6,137.4c-0.2,0-0.5,0-0.7,0c-0.5,0-0.9,0.2-1.2,0.5c-0.3,0.3-0.5,0.8-0.5,1.3v6.1h-2.3v-10.2h2.2v1.4
		c0.5-1.1,1.2-1.6,2.1-1.6c0.1,0,0.3,0,0.4,0V137.4z"/>
	<path class="st1" d="M285.1,145.3h-2.5l-1.9-4.2l-0.8,1.2v3h-2.3v-13.5h2.3v7.1h0l2.3-3.8h2.5l-2.6,4L285.1,145.3z"/>
	<path class="st1" d="M294.3,140.6h-4.6v0.8c0,1.6,0.4,2.4,1.1,2.4c0.7,0,1.1-0.6,1.2-1.9h2.1c-0.1,2.5-1.2,3.7-3.3,3.7
		c-1.5,0-2.5-0.6-3-1.8c-0.3-0.8-0.5-2-0.5-3.7c0-1.6,0.2-2.8,0.6-3.6c0.5-1.1,1.5-1.6,2.9-1.6c1.3,0,2.1,0.5,2.7,1.4
		c0.4,0.8,0.6,2,0.6,3.8V140.6z M292.1,139.1c0-0.6,0-1-0.1-1.2c-0.1-0.5-0.3-0.9-0.5-1c-0.2-0.1-0.4-0.2-0.6-0.2
		c-0.8,0-1.2,0.7-1.2,2v0.4H292.1z"/>
	<path class="st1" d="M303.5,145.3h-6.3v-2l3.6-6h-3.4v-2.1h6.1v2l-3.6,6h3.6V145.3z"/>
	<path class="st1" d="M309.1,133.9h-2.3v-2.2h2.3V133.9z M309.1,145.3h-2.3v-10.2h2.3V145.3z"/>
</g>
<g>
	<path class="st2" d="M372,115.6c-12.7,14-30.1,23.3-57.2,22.8c17.5-4.2,29-14.3,35.3-29.7c-17.5-10.5-35.2-26.3-32-53.4
		c1.9-15.8,11.6-27.5,22.8-35.6c12-8.7,26.4-13.4,43.9-14.2c20.9-1,38.9,6.1,51,15.4c12.3,9.5,22.7,24.6,21.1,43.6
		c-1.6,18.8-12.4,31.6-25.2,40C417.3,114.1,395,119.8,372,115.6z"/>
	<g>
		<g>
			<path class="st3" d="M359.8,37.1c8.6,0,15.8,3.2,21.6,9.6V2.3h7.4v91l-8-7.4c-5.8,6-12.8,9-20.9,9c-7.9,0-14.6-2.9-20.3-8.6
				c-5.7-5.7-8.6-12.5-8.6-20.3c0-8,2.9-14.9,8.6-20.5C345.2,39.9,352,37.1,359.8,37.1z M359.8,44.5c-6.1,0-11.2,2.1-15.3,6.2
				c-4.2,4.2-6.2,9.3-6.2,15.3c0,6.1,2.1,11.2,6.2,15.3c4.2,4.1,9.3,6.2,15.3,6.2c6,0,11.1-2.1,15.3-6.3c4.2-4.2,6.3-9.3,6.3-15.3
				c0-6-2.1-11.1-6.3-15.3C370.9,46.6,365.8,44.5,359.8,44.5z"/>
			<path class="st3" d="M396.8,17.2h7.4v8h-7.4V17.2z M396.8,38.6h7.4v54.8h-7.4V38.6z"/>
			<path class="st3" d="M412.2,93.4v-91h7.4v91H412.2z"/>
		</g>
	</g>
	<g>
		<g>
			<path class="st3" d="M510.7,124.8h-7.4V89.9c0-4.2-1.4-7.6-4.2-10.1c-2.8-2.5-6-3.8-9.8-3.8c-3.7,0-6.9,1.3-9.7,3.8
				c-2.8,2.5-4.2,5.9-4.2,10.1v34.9h-7.4V89.9c0-4.2-1.4-7.6-4.1-10.1c-2.8-2.5-6-3.8-9.8-3.8c-3.7,0-6.9,1.3-9.7,3.8
				c-2.8,2.5-4.2,5.9-4.2,10.1v34.9h-7.4V70.1l6.2,4.8c4.2-4.2,9.2-6.3,15.1-6.3c3.6,0,7,0.8,10.2,2.5c3.2,1.7,5.7,3.9,7.5,6.7
				c4.3-6.2,10.1-9.2,17.5-9.2c3.1,0,6,0.6,8.5,1.7c2.5,1.2,4.7,2.7,6.6,4.5c1.8,1.8,3.3,4,4.5,6.6c1.2,2.5,1.7,5.4,1.7,8.5V124.8z"
				/>
			<path class="st3" d="M564.6,107.6l6.4,3.6c-2.4,4.6-5.9,8.2-10.4,11c-4.6,2.8-9.6,4.2-15,4.2c-7.9,0-14.6-2.9-20.3-8.6
				c-5.7-5.7-8.6-12.5-8.6-20.3c0-8,2.9-14.9,8.6-20.5c5.7-5.6,12.5-8.4,20.3-8.4c5,0,9.7,1.3,14.1,3.7c4.4,2.5,7.8,5.7,10.2,9.5
				l-37.4,32.9c3.7,2.9,8.1,4.3,13,4.3c4.1,0,7.8-1,11.2-3.1C560.2,114,562.8,111.1,564.6,107.6z M527.7,109.6l32-28.4
				c-4-3.5-8.7-5.2-14.1-5.2c-6.1,0-11.2,2.1-15.3,6.2c-4.2,4.2-6.2,9.3-6.2,15.3C524.1,101.9,525.3,105.9,527.7,109.6z"/>
			<path class="st3" d="M605.9,70l-3.3,6.6c-1.1-0.4-2.4-0.5-3.9-0.5c-4.1,0-7.5,1.4-10.1,4.2c-2.6,2.8-3.9,6.1-3.9,9.9v34.8h-7.4
				V70.1l6.2,5c4.1-4.3,9.2-6.4,15.3-6.4C601.3,68.6,603.7,69.1,605.9,70z"/>
		</g>
	</g>
	<g>
		<path class="st4" d="M515.7,130.8h-7.4V95.9c0-4.2-1.4-7.6-4.2-10.1c-2.8-2.5-6-3.8-9.8-3.8c-3.7,0-6.9,1.3-9.7,3.8
			c-2.8,2.5-4.2,5.9-4.2,10.1v34.9h-7.4V95.9c0-4.2-1.4-7.6-4.1-10.1c-2.8-2.5-6-3.8-9.8-3.8c-3.7,0-6.9,1.3-9.7,3.8
			c-2.8,2.5-4.2,5.9-4.2,10.1v34.9h-7.4V76.1l6.2,4.8c4.2-4.2,9.2-6.3,15.1-6.3c3.6,0,7,0.8,10.2,2.5c3.2,1.7,5.7,3.9,7.5,6.7
			c4.3-6.2,10.1-9.2,17.5-9.2c3.1,0,6,0.6,8.5,1.7c2.5,1.2,4.7,2.7,6.6,4.5c1.8,1.8,3.3,4,4.5,6.6c1.2,2.5,1.7,5.4,1.7,8.5V130.8z"
			/>
		<path class="st4" d="M569.6,113.6l6.4,3.6c-2.4,4.6-5.9,8.2-10.4,11c-4.6,2.8-9.6,4.2-15,4.2c-7.9,0-14.6-2.9-20.3-8.6
			c-5.7-5.7-8.6-12.5-8.6-20.3c0-8,2.9-14.9,8.6-20.5c5.7-5.6,12.5-8.4,20.3-8.4c5,0,9.7,1.3,14.1,3.7c4.4,2.5,7.8,5.7,10.2,9.5
			l-37.4,32.9c3.7,2.9,8.1,4.3,13,4.3c4.1,0,7.8-1,11.2-3.1C565.1,119.9,567.8,117.1,569.6,113.6z M532.7,115.6l32-28.4
			c-4-3.5-8.7-5.2-14.1-5.2c-6.1,0-11.2,2.1-15.3,6.2c-4.2,4.2-6.2,9.3-6.2,15.3C529.1,107.9,530.3,111.9,532.7,115.6z"/>
		<path class="st4" d="M610.9,75.9l-3.3,6.6c-1.1-0.4-2.4-0.5-3.9-0.5c-4.1,0-7.5,1.4-10.1,4.2c-2.6,2.8-3.9,6.1-3.9,9.9v34.8h-7.4
			V76.1l6.2,5c4.1-4.3,9.2-6.4,15.3-6.4C606.3,74.6,608.7,75,610.9,75.9z"/>
	</g>
</g>
</svg>
